<svg width="10" height="14" viewBox="0 0 10 14" fill="none" xmlns="http://www.w3.org/2000/svg">
<path d="M5.33331 0.833252C2.75331 0.833252 0.666641 2.91992 0.666641 5.49992C0.666641 8.27992 3.61331 12.1133 4.82664 13.5733C5.09331 13.8933 5.57997 13.8933 5.84664 13.5733C7.05331 12.1133 9.99997 8.27992 9.99997 5.49992C9.99997 2.91992 7.91331 0.833252 5.33331 0.833252ZM5.33331 7.16658C4.41331 7.16658 3.66664 6.41992 3.66664 5.49992C3.66664 4.57992 4.41331 3.83325 5.33331 3.83325C6.25331 3.83325 6.99997 4.57992 6.99997 5.49992C6.99997 6.41992 6.25331 7.16658 5.33331 7.16658Z" fill="white"/>
</svg>
