<?xml version="1.0" encoding="utf-8"?>
<!-- Generator: Adobe Illustrator 28.3.0, SVG Export Plug-In . SVG Version: 6.00 Build 0)  -->
<svg version="1.1" id="Capa_1" xmlns="http://www.w3.org/2000/svg" xmlns:xlink="http://www.w3.org/1999/xlink" x="0px" y="0px"
	 viewBox="0 0 223.0233459 64.5962601" enable-background="new 0 0 223.0233459 64.5962601" xml:space="preserve">
<g>
	
		<text transform="matrix(1 0 0 1 -2022.111084 -2580.0437012)" fill="#1D1D1B" font-family="'FuturaNowHeadline'" font-size="134.5858307px">MOVE GPS</text>
	<circle fill="#1D1D1B" cx="-2108.6887207" cy="-2631.2341309" r="72.2683487"/>
	<polygon fill="#FFFFFF" points="-2069.0898438,-2603.2941895 -2108.6887207,-2629.5786133 -2148.2878418,-2603.2941895 
		-2108.6887207,-2671.8825684 	"/>
</g>
<g>
	<text transform="matrix(1 0 0 1 -2022.111084 -2233.8308105)"><tspan x="0" y="0" fill="#1D1D1B" font-family="'FuturaNowHeadline'" font-size="134.5858307px">MO</tspan><tspan x="239.2919922" y="0" fill="#FFFFFF" font-family="'FuturaNowHeadline'" font-size="134.5858307px">V</tspan><tspan x="323.4072266" y="0" fill="#1D1D1B" font-family="'FuturaNowHeadline'" font-size="134.5858307px">E GPS</tspan></text>
	<circle fill="#1D1D1B" cx="-2108.6887207" cy="-2285.0214844" r="72.2683487"/>
	<polygon fill="#FFFFFF" points="-2069.0898438,-2257.081543 -2108.6887207,-2283.3659668 -2148.2878418,-2257.081543 
		-2108.6887207,-2325.6699219 	"/>
	<polygon fill="#1D1D1B" points="-1785.9559326,-2335.8400879 -1743.717041,-2278.9716797 -1701.4781494,-2335.8400879 
		-1743.717041,-2228.3720703 	"/>
</g>
<path fill="#FFFFFF" d="M7.3615766,42.7424011l6.4501948-33.2949219h0.125l10.6962891,26.5947266L35.6613808,9.4474783h0.125
	l5.9931641,33.2949219h-3.5791016L34.3713417,20.184782l-9.7382812,23.7226582h-0.0839844l-9.4882812-23.7636738
	l-4.1201172,22.5986347H7.3615766z M45.0256386,26.9689617c0-2.2470703,0.4365234-4.3554688,1.3105469-6.3261719
	c0.8740234-1.9697266,2.0537109-3.6826172,3.5380859-5.1396475c1.4833984-1.4570312,3.2109375-2.6074219,5.1816406-3.4541016
	c1.9697266-0.8466797,4.0644531-1.2695312,6.2841797-1.2695312c2.1914062,0,4.2656288,0.4228516,6.2216835,1.2695312
	s3.6757812,1.9970703,5.1611328,3.4541016c1.4833984,1.4570303,2.65625,3.1777334,3.5166016,5.1611319
	c0.859375,1.9833984,1.2900391,4.1269531,1.2900391,6.4296875c0,2.2753906-0.4365234,4.3974609-1.3105469,6.3671894
	c-0.8740234,1.9707031-2.0537109,3.6835938-3.5380859,5.140625c-1.484375,1.4560547-3.21875,2.6074219-5.2021484,3.4541016
	c-1.984375,0.8457031-4.0859413,1.2695312-6.3056679,1.2695312c-2.1640625,0-4.2177734-0.4169922-6.1591797-1.2490234
	c-1.9423828-0.8320312-3.65625-1.9765625-5.1396484-3.4335938c-1.484375-1.4560547-2.6640625-3.1835938-3.5380859-5.1816406
	C45.462162,31.4640789,45.0256386,29.3000164,45.0256386,26.9689617z M48.5217323,27.0109539
	c0,1.8867188,0.3466797,3.6279297,1.0400391,5.2226582c0.6933594,1.5957031,1.6230469,2.9697266,2.7890625,4.1201172
	c1.1650391,1.1523438,2.5107422,2.0537109,4.0361328,2.7050781c1.5263672,0.6523438,3.1220703,0.9785156,4.7861328,0.9785156
	c1.7753906,0,3.4472694-0.3330078,5.0156288-0.9990234c1.5673828-0.6660156,2.9335938-1.5810547,4.0996094-2.7470703
	c1.1650391-1.1650391,2.0869141-2.5380859,2.7675781-4.1201172c0.6796875-1.5810566,1.0195312-3.2880878,1.0195312-5.1191425
	c0-1.8583984-0.3398438-3.5849609-1.0195312-5.1816406c-0.6806641-1.5947266-1.5957031-2.9755859-2.7470703-4.140625
	s-2.5039062-2.0742178-4.0576172-2.725585c-1.5546875-0.6523438-3.2050819-0.9785156-4.9531288-0.9785156
	c-1.7207031,0-3.3574219,0.3330078-4.9111328,0.9990234s-2.9130859,1.5810537-4.078125,2.7470694
	c-1.1650391,1.1650391-2.0878906,2.5380859-2.7675781,4.1201172C48.8605995,23.472868,48.5217323,25.1798992,48.5217323,27.0109539z
	 M78.2375565,11.3625174h3.7871094l9.3642578,24.4716797l9.3632812-24.4716797h3.7880859L91.3889236,44.4074402h-0.0839844
	L78.2375565,11.3625174z M124.2668533,11.3625174v3.2460938h-12.859375v9.3642569h12.4433594v3.2460938h-12.4433594v12.2773457
	h12.859375v3.2460938h-16.3144531V11.3625174H124.2668533z M139.9572754,27.0939617
	c0-2.3310547,0.4296875-4.4951172,1.2900391-6.4921875c0.859375-1.9980469,2.0253906-3.7255859,3.4960938-5.1816397
	c1.4707031-1.4570312,3.1835938-2.59375,5.1396484-3.4130859c1.9560547-0.8183594,4.0439453-1.2275391,6.2636719-1.2275391
	c2.6640625,0,5.0078125,0.5273438,7.0332031,1.5810547c2.0253906,1.0546875,3.9541016,2.6640625,5.7851562,4.828124
	l-2.4970703,2.3310547c-1.3046875-1.7480469-2.8095703-3.1005859-4.515625-4.0585928
	c-1.7060547-0.9570312-3.6142578-1.4355469-5.7226562-1.4355469c-1.7753906,0-3.4404297,0.3330078-4.9941406,0.9990234
	s-2.90625,1.5810537-4.0576172,2.7470694c-1.1513672,1.1650391-2.0605469,2.5458984-2.7255859,4.140625
	c-0.6660156,1.5957031-0.9990234,3.3232422-0.9990234,5.1816406c0,1.8867188,0.3388672,3.6210938,1.0195312,5.2021503
	c0.6796875,1.5820312,1.5810547,2.9482422,2.7050781,4.0996094s2.4345703,2.0537109,3.9326172,2.7050781
	c1.4990234,0.6523438,3.0517578,0.9775391,4.6621094,0.9775391c1.5527344,0,2.9755859-0.2558594,4.265625-0.7695312
	c1.2900391-0.5126953,2.4140625-1.2128906,3.3710938-2.1015625c0.9570312-0.8876953,1.7197266-1.9355469,2.2890625-3.1425781
	c0.5683594-1.2070312,0.8945312-2.5029316,0.9775391-3.8906269v-0.0419922h-9.03125v-3.2050781h12.7773438v0.75
	c0,2.3300781-0.3535156,4.4599628-1.0615234,6.3876972c-0.7070312,1.9287109-1.7060547,3.5791016-2.9960938,4.953125
	c-1.2910156,1.3730469-2.8378906,2.4345703-4.640625,3.1835938c-1.8037109,0.7490234-3.8154297,1.1240234-6.0351562,1.1240234
	c-2.1914062,0-4.2451172-0.4238281-6.1591797-1.2695312c-1.9140625-0.8466797-3.5791016-1.9980469-4.9941406-3.4541016
	c-1.4150391-1.4570312-2.5322266-3.1767578-3.3505859-5.1611328
	C140.3664551,31.457243,139.9572754,29.341032,139.9572754,27.0939617z M180.9934082,11.3625174
	c1.7480469,0,3.3291016,0.1523438,4.7441406,0.4570312c1.4150391,0.3056641,2.6357422,0.8115234,3.6630859,1.5195312
	c1.0253906,0.7070312,1.8164062,1.6298828,2.3720703,2.7675772c0.5546875,1.1376953,0.8320312,2.5390625,0.8320312,4.203125
	c0,1.4433594-0.25,2.7197266-0.7490234,3.8291016c-0.4990234,1.1103516-1.2070312,2.0537109-2.1230469,2.8300781
	c-0.9150391,0.7773438-2.0117188,1.3671875-3.2871094,1.7685547c-1.2763672,0.4023438-2.6914062,0.6035156-4.2451172,0.6035156
	h-2.4970703v13.4013691h-3.4550781V11.3625174H180.9934082z M179.7033691,26.1369305h2.2050781
	c2.3583984,0,4.1689453-0.4853516,5.4316406-1.4570312c1.2617188-0.9707031,1.8935547-2.4414062,1.8935547-4.4111328
	s-0.6523438-3.4199219-1.9560547-4.3496084c-1.3046875-0.9287109-3.1777344-1.3945312-5.6181641-1.3945312h-1.9560547V26.1369305z
	 M195.3498535,36.0832214l3.2050781-1.3320312c0.6376953,1.6933594,1.5673828,3.0039062,2.7880859,3.9335938
	s2.6777344,1.3935547,4.3701172,1.3935547c0.859375,0,1.6435547-0.1376953,2.3515625-0.4160156
	c0.7070312-0.2763672,1.3105469-0.6660156,1.8105469-1.1650391c0.4990234-0.4990234,0.8798828-1.0888672,1.1445312-1.7685547
	c0.2626953-0.6796875,0.3955078-1.4082031,0.3955078-2.1855469c0-0.8037109-0.1044922-1.5322266-0.3125-2.1845703
	c-0.2080078-0.6513691-0.5693359-1.2626972-1.0820312-1.8310566c-0.5136719-0.5683594-1.1933594-1.1171875-2.0390625-1.6445312
	c-0.8466797-0.5263672-1.8935547-1.0673828-3.1425781-1.6230469c-1.2763672-0.5820312-2.4072266-1.1503906-3.3916016-1.7060547
	c-0.9853516-0.5546875-1.8105469-1.1650391-2.4765625-1.8310547s-1.1650391-1.4150391-1.4980469-2.2470703
	c-0.3330078-0.8330078-0.5-1.7900391-0.5-2.8720703s0.2148438-2.1015625,0.6455078-3.0585928
	c0.4296875-0.9580078,1.0195312-1.7900391,1.7685547-2.4970703c0.7490234-0.7080078,1.6367188-1.2626953,2.6640625-1.6650391
	c1.0263672-0.4023438,2.1494141-0.6035156,3.3710938-0.6035156c1.9970703,0,3.7041016,0.4716797,5.1191406,1.4150391
	s2.5380859,2.2060547,3.3710938,3.7871094l-2.8720703,1.6650381c-0.7216797-1.1923828-1.5126953-2.0947256-2.3720703-2.7050772
	c-0.8603516-0.6103516-1.9423828-0.9160156-3.2460938-0.9160156c-1.4716797,0-2.6708984,0.4375-3.6005859,1.3115234
	c-0.9296875,0.8730459-1.3935547,1.9628897-1.3935547,3.2666006c0,0.6386719,0.1171875,1.2070312,0.3535156,1.7060547
	c0.2353516,0.5,0.6103516,0.9785156,1.1240234,1.4365234c0.5126953,0.4570312,1.1855469,0.9091797,2.0185547,1.3525391
	c0.8320312,0.4433594,1.8447266,0.9433594,3.0380859,1.4980469c1.4423828,0.6386719,2.6630859,1.2900391,3.6621094,1.9560547
	s1.8164062,1.3945312,2.4550781,2.1845703c0.6386719,0.7910156,1.1035156,1.6582031,1.3945312,2.6015625
	c0.2910156,0.9433613,0.4365234,2.0253925,0.4365234,3.2460957c0,1.3046875-0.2353516,2.4970703-0.7070312,3.5791016
	s-1.1240234,2.0048828-1.9560547,2.7675781c-0.8320312,0.7636719-1.8037109,1.3525391-2.9130859,1.7685547
	c-1.1103516,0.4169922-2.3173828,0.625-3.6210938,0.625c-1.3046875,0-2.5039062-0.1806641-3.5996094-0.5410156
	c-1.0966797-0.3603516-2.0810547-0.8603516-2.9550781-1.4990234c-0.8740234-0.6376953-1.6308594-1.4003906-2.2685547-2.2890625
	C196.2512207,38.1095886,195.7385254,37.1379089,195.3498535,36.0832214z M61.2166405,18.880888l-8.1800041,14.1683483
	l8.1800041-5.4295712l8.1800117,5.4295712L61.2166405,18.880888z M54.2229042,55.0675964l0.4365234-0.9785156
	c0.5419922,0.4355469,1.4042969,0.7460938,2.2382812,0.7460938c1.0556641,0,1.5019531-0.3779297,1.5019531-0.8818359
	c0-1.4628906-4.03125-0.5039062-4.03125-3.0234375c0-1.0947266,0.8720703-2.0253906,2.7324219-2.0253906
	c0.8134766,0,1.6669922,0.2138672,2.2578125,0.6015625l-0.3974609,0.9785156
	c-0.6103516-0.3583984-1.2792969-0.5332031-1.8701172-0.5332031c-1.0458984,0-1.4726562,0.4072266-1.4726562,0.9208984
	c0,1.4433594,4.0214844,0.5039062,4.0214844,2.9931641c0,1.0859375-0.8818359,2.015625-2.7421875,2.015625
	C55.8410683,55.881073,54.7854042,55.5519714,54.2229042,55.0675964z M74.9856033,54.2150574h-3.390625l-0.6689453,1.5693359
	h-1.2988281l3.0527344-6.7822266h1.2402344l3.0615234,6.7822266h-1.3173828L74.9856033,54.2150574z M74.5695877,53.2267761
	l-1.2792969-2.9648438l-1.2695312,2.9648438H74.5695877z M88.801033,50.0578308v2.0644531h3.2753906v1.0654297H88.801033v2.5966797
	H87.542244v-6.7822266h4.9511719v1.0556641H88.801033z M108.4982986,54.7287292v1.0556641h-5.0869141v-6.7822266h4.9511719
	v1.0556641h-3.6923828v1.7636719h3.2753906v1.0371094h-3.2753906v1.8701172H108.4982986z M131.4855957,52.3927917
	c0-2.0244141,1.5498047-3.4882812,3.6328125-3.4882812c1.1044922,0,2.0546875,0.3974609,2.6845703,1.1337891l-0.8144531,0.765625
	c-0.4941406-0.5332031-1.1044922-0.7939453-1.8115234-0.7939453c-1.4052734,0-2.4228516,0.9882812-2.4228516,2.3828125
	c0,1.3955078,1.0175781,2.3837891,2.4228516,2.3837891c0.7070312,0,1.3173828-0.2617188,1.8115234-0.8037109l0.8144531,0.7744141
	c-0.6298828,0.7363281-1.5800781,1.1337891-2.6943359,1.1337891
	C133.0354004,55.881073,131.4855957,54.4181824,131.4855957,52.3927917z M152.9641113,54.2150574h-3.390625l-0.6689453,1.5693359
	h-1.2988281l3.0527344-6.7822266h1.2402344l3.0615234,6.7822266h-1.3173828L152.9641113,54.2150574z M152.5480957,53.2267761
	l-1.2792969-2.9648438l-1.2695312,2.9648438H152.5480957z M169.958252,55.7843933l-1.3857422-1.9863281
	c-0.0869141,0.0097656-0.1748047,0.0097656-0.2617188,0.0097656h-1.53125v1.9765625h-1.2587891v-6.7822266h2.7900391
	c1.7832031,0,2.8876953,0.9101562,2.8876953,2.4121094c0,1.0273438-0.5234375,1.7832031-1.4433594,2.1416016l1.5595703,2.2285156
	H169.958252z M168.2531738,50.0675964h-1.4736328v2.703125h1.4736328c1.1044922,0,1.6757812-0.5039062,1.6757812-1.3564453
	S169.357666,50.0675964,168.2531738,50.0675964z"/>
</svg>
