<svg width="14" height="11" viewBox="0 0 14 11" fill="none" xmlns="http://www.w3.org/2000/svg">
<path d="M12.6666 0.166748H1.99997C1.26664 0.166748 0.673308 0.766748 0.673308 1.50008L0.666641 9.50008C0.666641 10.2334 1.26664 10.8334 1.99997 10.8334H12.6666C13.4 10.8334 14 10.2334 14 9.50008V1.50008C14 0.766748 13.4 0.166748 12.6666 0.166748ZM12.4 3.00008L7.68664 5.94675C7.47331 6.08008 7.19331 6.08008 6.97997 5.94675L2.26664 3.00008C2.09997 2.89341 1.99997 2.71341 1.99997 2.52008C1.99997 2.07341 2.48664 1.80675 2.86664 2.04008L7.33331 4.83342L11.8 2.04008C12.18 1.80675 12.6666 2.07341 12.6666 2.52008C12.6666 2.71341 12.5666 2.89341 12.4 3.00008Z" fill="white"/>
</svg>
