<svg width="13" height="13" viewBox="0 0 13 13" fill="none" xmlns="http://www.w3.org/2000/svg">
<path d="M11.1533 8.67326L9.46001 8.47992C9.05334 8.43326 8.65334 8.57326 8.36667 8.85992L7.14001 10.0866C5.25334 9.12659 3.70667 7.58659 2.74667 5.69326L3.98001 4.45992C4.26667 4.17326 4.40667 3.77326 4.36001 3.36659L4.16667 1.68659C4.08667 1.01326 3.52001 0.506592 2.84001 0.506592H1.68667C0.93334 0.506592 0.306673 1.13326 0.35334 1.88659C0.706673 7.57992 5.26001 12.1266 10.9467 12.4799C11.7 12.5266 12.3267 11.8999 12.3267 11.1466V9.99326C12.3333 9.31992 11.8267 8.75326 11.1533 8.67326Z" fill="white"/>
</svg>
